<svg xmlns="http://www.w3.org/2000/svg" viewBox="0 0 512 512" width="512" height="512">
  <defs>
    <linearGradient id="g512" x1="0%" y1="0%" x2="100%" y2="100%">
      <stop offset="0%" stop-color="#ff6b35"/>
      <stop offset="100%" stop-color="#d9381e"/>
    </linearGradient>
  </defs>
  <rect width="512" height="512" rx="112" fill="url(#g512)"/>
  <!-- Open Book & Star -->
  <path d="M112 176 C112 176, 180 160, 256 198 C332 160, 400 176, 400 176 L400 364 C400 364, 332 348, 256 386 C180 348, 112 364, 112 364 Z" fill="#ffffff" fill-opacity="0.95"/>
  <path d="M256 198 L256 386" stroke="#d9381e" stroke-width="10" stroke-linecap="round"/>
  <!-- P Lettermark inside -->
  <circle cx="256" cy="120" r="38" fill="#ffffff"/>
  <path d="M248 104 L248 136 M248 104 L260 104 C268 104 274 110 274 117 C274 124 268 130 260 130 L248 130" stroke="#ff6b35" stroke-width="6" stroke-linecap="round" stroke-linejoin="round"/>
</svg>
